<?xml version="1.0" encoding="UTF-8" standalone="no"?>
<!-- Created with Inkscape (http://www.inkscape.org/) -->

<svg
   xmlns:dc="http://purl.org/dc/elements/1.1/"
   xmlns:cc="http://creativecommons.org/ns#"
   xmlns:rdf="http://www.w3.org/1999/02/22-rdf-syntax-ns#"
   xmlns:svg="http://www.w3.org/2000/svg"
   xmlns="http://www.w3.org/2000/svg"
   xmlns:sodipodi="http://sodipodi.sourceforge.net/DTD/sodipodi-0.dtd"
   xmlns:inkscape="http://www.inkscape.org/namespaces/inkscape"
   width="100"
   height="100"
   viewBox="0 0 100 100"
   id="svg2"
   version="1.1"
   inkscape:version="0.91 r13725"
   sodipodi:docname="concept #21 (copy).svg"
   inkscape:export-filename="/home/rafael/Pictures/1e3.png"
   inkscape:export-xdpi="90"
   inkscape:export-ydpi="90">
  <defs
     id="defs4" />
  <sodipodi:namedview
     id="base"
     pagecolor="#ffffff"
     bordercolor="#666666"
     borderopacity="1.0"
     inkscape:pageopacity="0"
     inkscape:pageshadow="2"
     inkscape:zoom="2.8284271"
     inkscape:cx="121.41868"
     inkscape:cy="23.563719"
     inkscape:document-units="px"
     inkscape:current-layer="layer1"
     showgrid="false"
     units="px"
     inkscape:window-width="1920"
     inkscape:window-height="1017"
     inkscape:window-x="0"
     inkscape:window-y="30"
     inkscape:window-maximized="1" />
  <metadata
     id="metadata7">
    <rdf:RDF>
      <cc:Work
         rdf:about="">
        <dc:format>image/svg+xml</dc:format>
        <dc:type
           rdf:resource="http://purl.org/dc/dcmitype/StillImage" />
        <dc:title></dc:title>
      </cc:Work>
    </rdf:RDF>
  </metadata>
  <g
     inkscape:label="Layer 1"
     inkscape:groupmode="layer"
     id="layer1"
     transform="translate(0,-952.3621)">
    <g
       id="g6235"
       transform="matrix(0.13999973,0,0,0.13999973,205.95601,904.161)">
      <g
         style="fill:#d6edf5;fill-opacity:1"
         id="g6174">
        <path
           inkscape:connector-curvature="0"
           style="fill:#d6edf5;fill-opacity:1;stroke:none;stroke-width:15;stroke-linecap:round;stroke-linejoin:round;stroke-miterlimit:4;stroke-dasharray:none;stroke-opacity:1"
           d="m -1113.9729,451.43755 -36.0849,62.5 0,7.1e-4 36.0849,62.49903 36.084,-62.5 -36.084,-62.5 z"
           id="path4963-0-7-4" />
        <path
           inkscape:connector-curvature="0"
           style="fill:#d6edf5;fill-opacity:1;stroke:none;stroke-width:15;stroke-linecap:round;stroke-linejoin:round;stroke-miterlimit:4;stroke-dasharray:none;stroke-opacity:1"
           d="m -1150.0574,513.93758 -36.0849,62.5 0,7.1e-4 36.0849,62.49903 36.084,-62.5 -36.084,-62.5 z"
           id="path4963-0-7" />
        <path
           inkscape:connector-curvature="0"
           style="fill:#d6edf5;fill-opacity:1;stroke:none;stroke-width:15;stroke-linecap:round;stroke-linejoin:round;stroke-miterlimit:4;stroke-dasharray:none;stroke-opacity:1"
           d="m -1077.8884,513.93758 -36.0849,62.5 0,7.1e-4 36.0849,62.49902 36.084,-62.5 -36.084,-62.5 z"
           id="path4963-0-7-4-1" />
        <path
           inkscape:connector-curvature="0"
           style="fill:#d6edf5;fill-opacity:1;stroke:none;stroke-width:15;stroke-linecap:round;stroke-linejoin:round;stroke-miterlimit:4;stroke-dasharray:none;stroke-opacity:1"
           d="m -1113.9729,576.43761 -36.0849,62.5 0,7.1e-4 36.0849,62.49902 36.084,-62.5 -36.084,-62.5 z"
           id="path4963-0-7-4-1-9" />
        <path
           inkscape:connector-curvature="0"
           style="fill:#d6edf5;fill-opacity:1;stroke:none;stroke-width:15;stroke-linecap:round;stroke-linejoin:round;stroke-miterlimit:4;stroke-dasharray:none;stroke-opacity:1"
           d="m -1186.1419,576.43757 -36.0849,62.5 0,7.1e-4 36.0849,62.49903 36.084,-62.5 -36.084,-62.5 z"
           id="path4963-0-7-4-7-9-22" />
        <path
           inkscape:connector-curvature="0"
           style="fill:#d6edf5;fill-opacity:1;stroke:none;stroke-width:15;stroke-linecap:round;stroke-linejoin:round;stroke-miterlimit:4;stroke-dasharray:none;stroke-opacity:1"
           d="m -1041.804,576.43757 -36.0849,62.5 0,7.1e-4 36.0849,62.49903 36.084,-62.5 -36.084,-62.5 z"
           id="path4963-0-7-4-7-9-22-5" />
      </g>
      <g
         style="fill:#addbeb;fill-opacity:1"
         id="g6168">
        <path
           inkscape:connector-curvature="0"
           style="fill:#addbeb;fill-opacity:1;stroke:none;stroke-width:15;stroke-linecap:round;stroke-linejoin:round;stroke-miterlimit:4;stroke-dasharray:none;stroke-opacity:1"
           d="m -1222.2264,638.9376 -36.0849,62.5 0,7.1e-4 36.0849,62.49903 36.084,-62.5 -36.084,-62.5 z"
           id="path4963-0-7-43-0-1" />
        <path
           inkscape:connector-curvature="0"
           style="fill:#addbeb;fill-opacity:1;stroke:none;stroke-width:15;stroke-linecap:round;stroke-linejoin:round;stroke-miterlimit:4;stroke-dasharray:none;stroke-opacity:1"
           d="m -1150.0574,638.9376 -36.0849,62.5 0,7.1e-4 36.0849,62.49902 36.084,-62.5 -36.084,-62.5 z"
           id="path4963-0-7-4-1-1-7-0" />
        <path
           inkscape:connector-curvature="0"
           style="fill:#addbeb;fill-opacity:1;stroke:none;stroke-width:15;stroke-linecap:round;stroke-linejoin:round;stroke-miterlimit:4;stroke-dasharray:none;stroke-opacity:1"
           d="m -1077.8885,638.9376 -36.0849,62.5 0,7.1e-4 36.0849,62.49903 36.084,-62.5 -36.084,-62.5 z"
           id="path4963-0-7-43-0-1-7" />
        <path
           inkscape:connector-curvature="0"
           style="fill:#addbeb;fill-opacity:1;stroke:none;stroke-width:15;stroke-linecap:round;stroke-linejoin:round;stroke-miterlimit:4;stroke-dasharray:none;stroke-opacity:1"
           d="m -1005.7195,638.9376 -36.0849,62.5 0,7.1e-4 36.0849,62.49902 36.08401,-62.5 -36.08401,-62.5 z"
           id="path4963-0-7-4-1-1-7-0-1" />
      </g>
      <g
         style="fill:#98d1e6;fill-opacity:1"
         id="g6182">
        <path
           inkscape:connector-curvature="0"
           style="fill:#98d1e6;fill-opacity:1;stroke:none;stroke-width:15;stroke-linecap:round;stroke-linejoin:round;stroke-miterlimit:4;stroke-dasharray:none;stroke-opacity:1"
           d="m -1113.9729,701.4376 -36.0849,62.5 0,7.1e-4 36.0849,62.49903 36.084,-62.5 -36.084,-62.5 z"
           id="path4963-0-7-4-7" />
        <path
           inkscape:connector-curvature="0"
           style="fill:#98d1e6;fill-opacity:1;stroke:none;stroke-width:15;stroke-linecap:round;stroke-linejoin:round;stroke-miterlimit:4;stroke-dasharray:none;stroke-opacity:1"
           d="m -1186.1419,701.43763 -36.0849,62.5 0,7.1e-4 36.0849,62.49902 36.084,-62.5 -36.084,-62.5 z"
           id="path4963-0-7-4-1-9-3-9-2" />
        <path
           inkscape:connector-curvature="0"
           style="fill:#98d1e6;fill-opacity:1;stroke:none;stroke-width:15;stroke-linecap:round;stroke-linejoin:round;stroke-miterlimit:4;stroke-dasharray:none;stroke-opacity:1"
           d="m -1041.804,701.43763 -36.0849,62.5 0,7.1e-4 36.0849,62.49902 36.084,-62.5 -36.084,-62.5 z"
           id="path4963-0-7-4-1-9-3-9-2-7" />
        <path
           inkscape:connector-curvature="0"
           style="fill:#98d1e6;fill-opacity:1;stroke:none;stroke-width:15;stroke-linecap:round;stroke-linejoin:round;stroke-miterlimit:4;stroke-dasharray:none;stroke-opacity:1"
           d="m -1258.3108,701.4376 -36.0849,62.5 0,7.1e-4 36.0849,62.49903 36.084,-62.5 -36.084,-62.5 z"
           id="path4963-0-7-4-7-9" />
        <path
           inkscape:connector-curvature="0"
           style="fill:#98d1e6;fill-opacity:1;stroke:none;stroke-width:15;stroke-linecap:round;stroke-linejoin:round;stroke-miterlimit:4;stroke-dasharray:none;stroke-opacity:1"
           d="m -969.63504,701.4376 -36.08486,62.5 0,7.1e-4 36.08486,62.49903 36.084,-62.5 -36.084,-62.5 z"
           id="path4963-0-7-4-7-9-2" />
      </g>
      <g
         style="fill:#84c8e1;fill-opacity:1"
         id="g6189">
        <path
           inkscape:connector-curvature="0"
           style="fill:#84c8e1;fill-opacity:1;stroke:none;stroke-width:15;stroke-linecap:round;stroke-linejoin:round;stroke-miterlimit:4;stroke-dasharray:none;stroke-opacity:1"
           d="m -1150.0574,763.93763 -36.0849,62.5 0,7.1e-4 36.0849,62.49903 36.084,-62.5 -36.084,-62.5 z"
           id="path4963-0-7-43" />
        <path
           inkscape:connector-curvature="0"
           style="fill:#84c8e1;fill-opacity:1;stroke:none;stroke-width:15;stroke-linecap:round;stroke-linejoin:round;stroke-miterlimit:4;stroke-dasharray:none;stroke-opacity:1"
           d="m -1077.8884,763.93763 -36.0849,62.5 0,7.1e-4 36.0849,62.49902 36.084,-62.5 -36.084,-62.5 z"
           id="path4963-0-7-4-1-1" />
        <path
           inkscape:connector-curvature="0"
           style="fill:#84c8e1;fill-opacity:1;stroke:none;stroke-width:15;stroke-linecap:round;stroke-linejoin:round;stroke-miterlimit:4;stroke-dasharray:none;stroke-opacity:1"
           d="m -1294.3953,763.93763 -36.0849,62.5 0,7.1e-4 36.0849,62.49903 36.084,-62.5 -36.084,-62.5 z"
           id="path4963-0-7-43-0" />
        <path
           inkscape:connector-curvature="0"
           style="fill:#84c8e1;fill-opacity:1;stroke:none;stroke-width:15;stroke-linecap:round;stroke-linejoin:round;stroke-miterlimit:4;stroke-dasharray:none;stroke-opacity:1"
           d="m -1222.2263,763.93763 -36.0849,62.5 0,7.1e-4 36.0849,62.49902 36.084,-62.5 -36.084,-62.5 z"
           id="path4963-0-7-4-1-1-7" />
        <path
           inkscape:connector-curvature="0"
           style="fill:#84c8e1;fill-opacity:1;stroke:none;stroke-width:15;stroke-linecap:round;stroke-linejoin:round;stroke-miterlimit:4;stroke-dasharray:none;stroke-opacity:1"
           d="m -1005.7195,763.93763 -36.0849,62.5 0,7.1e-4 36.0849,62.49903 36.08396,-62.5 -36.08396,-62.5 z"
           id="path4963-0-7-43-0-3" />
        <path
           inkscape:connector-curvature="0"
           style="fill:#84c8e1;fill-opacity:1;stroke:none;stroke-width:15;stroke-linecap:round;stroke-linejoin:round;stroke-miterlimit:4;stroke-dasharray:none;stroke-opacity:1"
           d="m -933.55054,763.93763 -36.0849,62.5 0,7.1e-4 36.0849,62.49902 36.084,-62.5 -36.084,-62.5 z"
           id="path4963-0-7-4-1-1-7-4" />
      </g>
      <g
         style="fill:#6fbfdc;fill-opacity:1"
         id="g6197">
        <path
           id="path4963-0-7-43-0-17-0-7"
           transform="translate(0,552.3621)"
           d="m -1330.4805,274.07617 -36.084,62.5 -36.0839,62.5 72.1679,0 72.168,0 -36.084,-62.5 -36.084,-62.5 z m 36.084,62.5 36.086,62.5 72.1679,0 72.168,0 -36.084,-62.5 -36.084,-62.5 -36.084,62.49805 -36.0839,-62.49805 -36.086,62.5 z m 144.3379,0 36.0859,62.5 72.168,0 72.16798,0 -36.08398,-62.5 -36.084,-62.5 -36.084,62.49805 -36.084,-62.49805 -36.0859,62.5 z m 144.3379,0 36.08593,62.5 72.16797,0 72.16797,0 -36.08398,-62.5 -36.08399,-62.5 -36.08398,62.49805 -36.08399,-62.49805 -36.08593,62.5 z"
           style="fill:#6fbfdc;fill-opacity:1;stroke:none;stroke-width:15;stroke-linecap:round;stroke-linejoin:round;stroke-miterlimit:4;stroke-dasharray:none;stroke-opacity:1"
           inkscape:connector-curvature="0" />
      </g>
    </g>
  </g>
</svg>
